<svg width="114" height="24" viewBox="0 0 114 24" fill="none" xmlns="http://www.w3.org/2000/svg">
<path fill-rule="evenodd" clip-rule="evenodd" d="M9.45749 20.9744C10.3303 20.9744 11.1467 20.8186 11.9163 20.5162C11.9163 20.5437 13.4835 22.917 13.5116 22.9261C12.1245 23.6517 10.5711 24.0206 8.99765 23.9982C4.18334 24.0074 0.692261 20.9011 0.692261 15.9621C0.692261 10.9866 4.35226 7.8986 8.99765 7.8986C10.64 7.8986 11.9444 8.2468 13.2489 8.92487L11.7473 11.3989C10.959 11.0965 10.152 10.9591 9.30734 10.9591C6.4638 10.9591 4.25841 12.7276 4.25841 15.9621C4.25841 19.0226 6.38872 20.9744 9.45749 20.9744ZM21.5918 7.8986C26.3216 7.8986 29.747 11.1698 29.747 15.9621C29.747 20.727 26.3216 23.9982 21.5824 23.9982C16.8901 23.9982 13.4647 20.727 13.4647 15.9621C13.4647 11.1698 16.8901 7.8986 21.5918 7.8986ZM21.5918 10.8491C18.9547 10.8491 17.0309 12.8375 17.0309 15.9621C17.0309 19.0593 18.9547 21.0477 21.5918 21.0477C24.2946 21.0477 26.1903 19.0593 26.1903 15.9621C26.1903 12.8375 24.2946 10.8491 21.5918 10.8491ZM31.99 23.65V8.2468H35.5186V23.6408H31.99V23.65ZM31.5207 3.50947C31.5573 2.96146 31.8061 2.44757 32.2165 2.07209C32.627 1.69661 33.1684 1.48767 33.7308 1.48767C34.2932 1.48767 34.8346 1.69661 35.2451 2.07209C35.6555 2.44757 35.9043 2.96146 35.9409 3.50947C35.941 4.08487 35.7102 4.6374 35.2979 5.04853C34.8856 5.45966 34.3247 5.69663 33.7355 5.70862C33.1463 5.69663 32.5854 5.45966 32.1731 5.04853C31.7608 4.6374 31.53 4.08487 31.5301 3.50947H31.5207ZM38.5967 9.21809C40.9081 8.36982 43.3537 7.92325 45.8229 7.8986C49.8583 7.8986 52.4109 9.39219 52.4109 13.7355V23.65H48.9292V14.0562C48.9292 11.8296 47.5121 11.0324 45.5507 11.0324C44.3026 11.0324 43.0544 11.1973 42.1253 11.4814V23.6408H38.6061V9.21809H38.5967ZM55.367 0H58.8956V8.65914C59.6464 8.27429 61.101 7.8986 62.4899 7.8986C67.0509 7.8986 70.4669 10.7392 70.4669 15.6873C70.4669 20.6628 67.0884 23.9982 61.2512 23.9982C58.9707 23.9982 56.9718 23.54 55.367 22.9903V0ZM58.8956 20.727C59.5713 20.9377 60.4629 21.0477 61.3544 21.0477C64.5921 21.0477 66.9101 19.3067 66.9101 15.7606C66.9101 12.7642 64.7329 10.9957 62.0676 10.9957C60.6787 10.9957 59.6089 11.3439 58.8956 11.7288V20.727ZM80.6679 13.3232C80.6679 11.6555 79.3729 10.8858 77.6273 10.8858C75.8161 10.8858 74.3896 11.4081 73.0758 12.1411V9.14479C74.6475 8.3108 76.4111 7.88189 78.1998 7.8986C81.6533 7.8986 84.1121 9.2914 84.1121 13.1491V23.3385C82.6106 23.7233 80.4803 23.9615 78.6972 23.9615C74.6055 23.9615 71.6118 22.752 71.6118 19.27C71.6118 16.1362 74.3521 14.606 78.913 14.606H80.6586V13.3232H80.6679ZM80.6679 16.8968H79.1664C76.7076 16.8968 75.1029 17.6023 75.1029 19.1692C75.1029 20.7636 76.6044 21.3867 78.7347 21.3867C79.2696 21.3867 80.0204 21.3226 80.6586 21.2218V16.9059L80.6679 16.8968ZM86.6741 19.4808C88.0493 20.5447 89.7352 21.1543 91.4884 21.2218C93.0556 21.2218 94.0879 20.6995 94.0879 19.4808C94.0879 18.2254 93.1589 17.7764 91.1318 17.2541C87.8472 16.5211 86.4676 15.2383 86.4676 12.5535C86.4676 9.42885 88.8889 7.8986 92.0984 7.8986C93.8815 7.8986 95.2986 8.27429 96.6218 9.08065V12.2419C95.3641 11.2619 93.8104 10.7143 92.2016 10.6842C90.672 10.6842 89.8555 11.4172 89.8555 12.4252C89.8555 13.4331 90.5218 13.9463 92.3424 14.4411C95.9461 15.2016 97.504 16.5211 97.504 19.2975C97.504 22.5413 94.9795 23.9982 91.5635 23.9982C89.8501 24.0316 88.1608 23.6002 86.6835 22.752V19.4808H86.6741ZM102.337 16.7318V16.796C102.553 19.5449 104.965 21.0477 107.433 21.0477C109.601 21.0477 111.168 20.5529 112.735 19.5449V22.5688C111.309 23.5492 109.207 23.9982 107.179 23.9982C102.262 23.9982 98.921 20.9377 98.921 16.0721C98.921 11.1698 102.196 7.8986 106.541 7.8986C111.14 7.8986 113.308 10.785 113.308 14.9909V16.7318H102.328H102.337ZM109.995 14.5052C109.92 12.1045 108.709 10.785 106.429 10.785C104.402 10.785 102.909 12.1778 102.44 14.5052H109.995Z" fill="#0667D0"/>
</svg>
