<svg width="296" height="129" viewBox="0 0 596 429" fill="none" xmlns="http://www.w3.org/2000/svg">
<path d="M543.574 113.293V43.8761C543.574 15.5069 517.107 -5.41346 489.53 1.243L186.503 74.1471C169.703 78.1093 157.975 93.1656 157.975 110.441V157.353C157.975 157.353 158.609 173.202 157.817 230.891L157.183 318.534C157.183 388.11 157.183 401.106 283.18 401.106C341.503 401.106 431.999 401.74 550.389 401.106C593.181 399.046 595.083 359.107 595.083 345.794C596.509 261.004 595.083 208.861 595.083 173.202C595.083 133.58 582.721 118.365 543.574 113.293Z" fill="#5163EC"/>
<path d="M543.574 40.3893V113.293H202.668C195.695 113.293 189.989 107.588 189.989 100.614C189.989 98.0787 190.782 95.5429 192.208 93.641C192.367 93.4826 192.525 93.3241 192.525 93.0071C194.268 90.9468 196.646 89.3619 199.34 88.7279H199.657L203.461 87.777L512.194 15.5068C528.201 11.7031 543.574 23.9067 543.574 40.3893Z" fill="#9399FC"/>
<path d="M543.574 113.135C543.574 113.135 543.574 113.293 543.574 113.135L203.302 113.293C196.645 113.293 190.781 108.38 190.147 101.882C189.831 98.8711 190.623 96.0183 192.366 93.641C192.525 93.4825 192.683 93.1656 193 93.0071C194.902 91.1052 197.279 89.5204 199.815 88.7279C201.083 88.2525 202.193 87.9355 203.619 87.777C204.411 87.6185 205.045 87.6185 205.838 87.6185H518.058C532.163 87.46 543.574 99.0296 543.574 113.135Z" fill="#F7E0FE"/>
<path d="M595.083 231.366H492.7C470.512 231.366 452.603 249.275 452.603 271.464C452.603 293.652 470.512 311.561 492.7 311.561H594.924V231.366H595.083Z" fill="#F7E0FE"/>
<path d="M496.028 289.056C505.743 289.056 513.62 281.18 513.62 271.464C513.62 261.748 505.743 253.872 496.028 253.872C486.312 253.872 478.436 261.748 478.436 271.464C478.436 281.18 486.312 289.056 496.028 289.056Z" fill="#5163EC"/>
<path d="M209.483 420.442C205.996 417.272 202.51 411.091 198.864 402.85C198.864 402.691 198.864 402.691 198.706 402.533C195.695 395.718 192.842 387.476 189.989 378.284C189.989 378.284 189.989 378.284 189.989 378.126C173.982 326.459 160.669 248.008 160.511 246.898L159.084 247.057L157.658 246.423C157.499 246.74 151.318 257.834 139.432 274.316C139.273 274.475 139.115 274.633 139.115 274.792C115.183 307.599 68.588 361.009 0.913902 392.072C0.121466 392.389 -0.195509 393.34 0.121466 394.133C0.43844 394.925 1.38936 395.242 2.1818 394.925C16.4457 388.427 29.7586 380.82 42.1206 372.737C44.6564 378.918 54.958 397.461 85.0706 394.45C79.8405 401.582 74.2935 408.397 68.588 414.419C67.954 415.053 67.954 416.004 68.588 416.638C68.9049 416.955 69.2219 417.113 69.6974 417.113C70.1728 417.113 70.4898 416.955 70.8068 416.638C76.8293 410.298 82.6933 403.008 88.2404 395.401C94.5798 405.068 110.112 417.272 132.458 407.921C128.496 415.212 124.058 421.551 118.828 426.306C118.194 426.94 118.194 427.891 118.828 428.524C119.145 428.841 119.621 429 119.938 429C120.255 429 120.73 428.841 121.047 428.524C126.911 422.977 132.141 415.687 136.737 406.495C141.651 409.189 157.341 416.955 172.714 416.955C181.748 416.955 190.623 414.261 197.121 406.178C200.449 413.627 203.936 419.174 207.264 422.343C207.898 422.977 208.849 422.819 209.483 422.185C210.117 421.551 210.117 421.076 209.483 420.442ZM121.047 302.686C122.632 305.221 126.119 308.867 133.409 308.074C133.092 308.867 132.775 309.501 132.458 310.293C130.715 314.097 128.972 318.059 127.07 322.021C115.659 326.459 110.587 317.583 109.636 315.682C113.598 311.244 117.402 306.965 121.047 302.686ZM131.824 289.69C132.458 290.482 133.251 291.116 134.519 291.75C136.104 292.542 138.164 292.701 140.224 292.384C138.639 296.346 136.737 300.467 134.994 304.746C126.753 306.648 123.9 301.893 123.266 300.308C126.277 296.505 129.13 293.018 131.824 289.69ZM140.7 278.12C141.492 278.596 142.443 279.071 143.552 279.23C144.186 279.23 144.979 279.23 145.613 279.071C144.345 282.082 143.077 285.252 141.809 288.58C139.432 289.373 137.53 289.531 135.945 288.897C134.836 288.422 134.202 287.629 133.885 287.154C136.262 283.984 138.639 280.973 140.7 278.12ZM163.997 283.35C164.631 286.203 165.107 289.214 165.741 292.384C165.582 293.335 165.107 294.444 164.314 294.761C163.205 295.078 161.144 293.652 159.877 292.542C160.035 289.214 160.194 285.886 160.352 282.875C161.144 283.35 161.937 283.667 162.888 283.667C163.046 283.667 163.363 283.667 163.522 283.509C163.839 283.509 163.839 283.35 163.997 283.35ZM169.544 309.818C169.069 312.353 168.118 313.938 166.692 314.572C164.314 315.523 160.511 313.621 158.609 312.195C159.084 306.806 159.401 301.418 159.718 296.346C160.986 297.139 162.571 297.931 164.156 297.931C164.631 297.931 164.948 297.931 165.424 297.773C165.899 297.614 166.533 297.297 166.85 296.98C167.642 301.101 168.593 305.38 169.544 309.818ZM179.529 352.451C178.895 354.511 175.725 364.02 169.227 364.813C160.194 365.922 154.013 359.741 152.269 357.839C153.537 351.5 154.647 344.843 155.597 337.711C158.133 339.296 162.254 341.515 166.533 341.515C167.484 341.515 168.593 341.357 169.544 341.04C171.922 340.247 173.823 338.821 175.408 336.443C176.835 341.832 178.103 347.221 179.529 352.451ZM153.537 282.399C154.805 282.716 156.073 282.558 157.341 282.082C157.182 285.252 157.024 288.58 156.865 292.067C154.646 293.335 152.428 293.652 150.367 293.335C147.673 292.701 145.613 290.641 144.82 289.531C146.247 285.886 147.673 282.399 149.099 279.071C150.05 280.497 151.477 281.924 153.537 282.399ZM143.394 292.859C144.662 294.286 146.722 295.712 149.575 296.346C151.794 296.822 154.171 296.663 156.548 295.712C156.231 300.942 155.914 306.331 155.439 312.036C152.586 313.938 149.733 314.572 147.198 313.938C142.285 312.67 138.956 307.599 138.005 305.855C139.749 301.418 141.651 297.139 143.394 292.859ZM135.311 311.561C135.628 310.927 135.945 310.135 136.262 309.501C138.164 312.195 141.492 315.999 146.247 317.266C149.099 317.9 152.111 317.583 154.963 316.157C154.33 322.021 153.696 328.044 152.903 334.066C147.673 336.285 143.077 336.443 139.115 334.7C133.251 332.006 130.556 325.508 129.764 323.606C131.824 319.168 133.726 315.206 135.311 311.561ZM168.752 338.187C163.997 339.613 158.133 335.809 156.073 334.383C156.548 330.421 157.024 326.459 157.499 322.338C157.658 320.119 157.975 318.059 158.133 315.84C159.877 316.949 162.412 318.059 165.107 318.059C166.058 318.059 166.85 317.9 167.801 317.583C168.91 317.108 169.861 316.316 170.654 315.365C171.763 320.753 173.031 326.142 174.299 331.689C173.19 335.176 171.288 337.394 168.752 338.187ZM157.341 278.437C156.231 279.23 155.28 279.547 154.171 279.23C152.428 278.754 151.001 276.694 150.367 275.584C153.379 267.66 155.914 261.162 157.658 256.249C157.658 261.796 157.658 269.403 157.341 278.437ZM128.021 327.093C129.606 330.262 132.617 334.859 137.847 337.236C142.126 339.296 147.039 339.296 152.428 337.394C151.477 344.051 150.367 350.707 149.099 357.364C142.601 361.643 136.579 362.911 131.349 361.167C123.266 358.473 118.987 349.281 118.036 346.904C121.681 340.247 125.009 333.591 128.021 327.093ZM100.602 371.311C90.6177 373.212 82.5348 371.945 76.5123 367.824C69.8559 363.228 67.7955 356.413 67.32 354.669C75.2444 348.488 82.5348 341.99 89.5083 335.651C89.9837 338.504 91.4101 344.051 96.1647 347.379C100.444 350.39 106.149 351.024 113.281 349.281C109.319 356.73 105.04 364.179 100.602 371.311ZM116.134 350.549C118.194 354.669 122.632 361.801 130.239 364.337C135.628 366.081 141.651 365.288 148.149 361.643C146.722 368.458 144.979 375.273 143.077 381.612C135.47 386.525 128.179 388.269 121.364 386.684C111.379 384.307 105.04 375.431 103.297 372.895C107.893 365.447 112.172 357.839 116.134 350.549ZM151.635 361.643C154.488 364.337 159.877 368.141 167.167 368.141C167.959 368.141 168.91 368.141 169.703 367.982C175.408 367.348 179.054 361.96 180.955 357.681C182.857 364.813 184.918 371.945 186.978 378.443C183.016 384.94 177.944 388.744 171.922 389.854C160.986 391.755 149.575 384.307 146.405 381.929C148.307 375.748 150.05 368.933 151.635 361.643ZM160.828 266.075C161.62 270.037 162.412 274.633 163.363 279.547C163.205 280.18 163.046 280.339 163.046 280.339C162.729 280.497 161.62 279.705 160.669 278.596C160.669 274.158 160.669 269.879 160.828 266.075ZM147.356 274.633C146.088 275.584 144.979 276.06 144.028 275.901C143.394 275.901 142.918 275.584 142.601 275.426C146.564 269.879 149.892 264.966 152.586 260.845C151.16 264.807 149.416 269.562 147.356 274.633ZM107.259 318.059C108.527 320.119 111.063 323.606 115.342 325.349C118.353 326.617 121.681 326.776 125.168 325.825C122.157 332.164 118.828 338.821 115.183 345.477C107.576 347.854 101.87 347.696 97.9081 344.843C92.5195 341.04 92.361 333.749 92.361 333.591C92.361 333.432 92.361 333.115 92.2025 332.957C97.5911 328.044 102.504 322.972 107.259 318.059ZM44.6564 371.311C51.6298 366.714 58.2863 361.801 64.6258 356.888C65.5767 360.058 68.271 366.081 74.6105 370.518C80.7915 374.797 88.7158 376.224 98.3835 374.956C94.8968 380.503 91.2516 386.05 87.4479 391.28C55.592 395.718 46.3997 376.224 44.6564 371.311ZM90.3007 392.865C94.2629 387.318 98.0666 381.612 101.712 375.748C104.406 379.552 110.904 387.318 120.73 389.695C127.387 391.28 134.519 390.171 141.651 386.208C139.59 392.389 137.371 398.095 134.836 403.484C107.576 417.589 92.995 397.303 90.3007 392.865ZM138.164 403.959C140.858 398.253 143.235 392.072 145.454 385.257C149.258 387.952 158.292 393.499 168.118 393.499C169.544 393.499 170.971 393.34 172.397 393.182C178.578 392.072 183.808 388.427 188.087 382.563C190.623 390.171 193.159 397.302 195.695 403.325C179.846 425.196 145.137 407.921 138.164 403.959Z" fill="#BC6AD3"/>
</svg>
