<svg xmlns="http://www.w3.org/2000/svg" width="100%" height="100%" viewBox="0 0 977.304 137.596" xml:space="preserve"><path fill-rule="evenodd" clip-rule="evenodd" fill="#06033A" d="M314.497 13.948v84.608h-16.971V62.554h-36.243v36.002h-16.971V13.948h16.971v34.788h36.243V13.948h16.971zm79.153 49.577c0 2.423-.161 4.606-.484 6.545h-49.092c.405 4.849 2.101 8.647 5.091 11.395 2.99 2.748 6.667 4.121 11.031 4.121 6.304 0 10.788-2.706 13.455-8.122h18.304c-1.94 6.465-5.657 11.779-11.152 15.94-5.496 4.162-12.244 6.242-20.244 6.242-6.465 0-12.263-1.434-17.394-4.303-5.131-2.868-9.132-6.929-12-12.182-2.869-5.253-4.303-11.313-4.303-18.183 0-6.949 1.414-13.05 4.243-18.302 2.828-5.253 6.787-9.294 11.879-12.122 5.09-2.828 10.95-4.243 17.575-4.243 6.384 0 12.102 1.374 17.152 4.122 5.051 2.746 8.97 6.646 11.758 11.697 2.788 5.051 4.181 10.849 4.181 17.395zm-17.575-4.849c-.081-4.364-1.657-7.859-4.728-10.485-3.071-2.625-6.829-3.938-11.272-3.938-4.203 0-7.738 1.272-10.607 3.817-2.868 2.545-4.626 6.081-5.272 10.606h31.879zm92.365 4.849c0 2.423-.161 4.606-.485 6.545h-49.093c.405 4.849 2.102 8.647 5.091 11.395 2.991 2.748 6.667 4.121 11.031 4.121 6.304 0 10.788-2.706 13.455-8.122h18.304c-1.94 6.465-5.658 11.779-11.153 15.94-5.495 4.162-12.243 6.242-20.242 6.242-6.465 0-12.263-1.434-17.395-4.303-5.131-2.868-9.132-6.929-12-12.182s-4.303-11.313-4.303-18.183c0-6.949 1.415-13.05 4.242-18.302 2.828-5.253 6.789-9.294 11.879-12.122s10.951-4.243 17.577-4.243c6.384 0 12.101 1.374 17.152 4.122 5.051 2.746 8.97 6.646 11.758 11.697 2.788 5.051 4.182 10.849 4.182 17.395zm-17.576-4.849c-.081-4.364-1.657-7.859-4.728-10.485-3.07-2.625-6.828-3.938-11.272-3.938-4.202 0-7.738 1.272-10.606 3.817-2.869 2.545-4.626 6.081-5.273 10.606h31.879zm46.911-16.849c2.181-3.556 5.029-6.344 8.545-8.364 3.516-2.02 7.535-3.03 12.062-3.03v17.818h-4.486c-5.332 0-9.353 1.253-12.061 3.758-2.706 2.504-4.06 6.868-4.06 13.091v33.456h-16.971V31.402h16.971v10.425zm27.637 22.91c0-6.789 1.354-12.809 4.06-18.061 2.708-5.253 6.385-9.294 11.031-12.122 4.647-2.828 9.839-4.243 15.576-4.243 5.011 0 9.394 1.01 13.152 3.031 3.757 2.021 6.768 4.565 9.03 7.637v-9.577h17.093v67.154h-17.093v-9.819c-2.182 3.152-5.192 5.759-9.03 7.818-3.839 2.062-8.264 3.091-13.274 3.091-5.656 0-10.807-1.454-15.454-4.363-4.646-2.909-8.323-7.011-11.031-12.303-2.706-5.293-4.06-11.374-4.06-18.243zm52.85.242c0-4.121-.809-7.656-2.424-10.605-1.616-2.95-3.799-5.212-6.546-6.789-2.748-1.576-5.697-2.363-8.849-2.363-3.153 0-6.061.767-8.729 2.302-2.666 1.535-4.828 3.778-6.485 6.727-1.655 2.951-2.483 6.445-2.483 10.486 0 4.04.828 7.576 2.483 10.606 1.657 3.03 3.839 5.354 6.547 6.97 2.707 1.615 5.596 2.425 8.667 2.425 3.151 0 6.101-.789 8.849-2.364 2.747-1.576 4.93-3.839 6.546-6.787 1.615-2.952 2.424-6.486 2.424-10.608zm60.97-50.911c9.213 0 17.192 1.718 23.941 5.152 6.747 3.434 11.92 8.343 15.514 14.728 3.597 6.384 5.395 13.898 5.395 22.546 0 8.646-1.798 16.141-5.395 22.485-3.594 6.345-8.767 11.193-15.514 14.546-6.749 3.354-14.729 5.031-23.941 5.031H612.93V14.068h26.302zm0 75.395c10.91 0 19.232-2.888 24.971-8.666s8.605-13.878 8.605-24.303c0-10.506-2.888-18.708-8.666-24.607s-14.08-8.848-24.91-8.848H623.96v66.424h15.272zm65.093-68.121c-2.102 0-3.88-.727-5.333-2.182-1.454-1.455-2.182-3.233-2.182-5.334 0-2.101.728-3.878 2.182-5.333 1.453-1.455 3.231-2.182 5.333-2.182 2.021 0 3.737.727 5.152 2.182 1.414 1.455 2.121 3.231 2.121 5.333 0 2.102-.707 3.88-2.121 5.334-1.414 1.455-3.13 2.182-5.152 2.182zm5.334 10.788v66.426h-11.03V32.13h11.03zm46.183-1.091c5.738 0 10.768 1.253 15.091 3.758s7.536 5.657 9.637 9.455V32.13h11.152v67.88c0 6.061-1.293 11.454-3.878 16.183-2.587 4.727-6.284 8.424-11.092 11.092-4.809 2.666-10.404 3.999-16.789 3.999-8.728 0-16-2.061-21.819-6.182-5.817-4.122-9.252-9.737-10.303-16.849h10.909c1.212 4.039 3.718 7.293 7.516 9.759 3.798 2.463 8.364 3.695 13.697 3.695 6.062 0 11.011-1.899 14.85-5.696 3.838-3.798 5.757-9.132 5.757-16.001V86.071c-2.181 3.878-5.414 7.111-9.697 9.697-4.282 2.585-9.292 3.878-15.03 3.878-5.899 0-11.253-1.454-16.06-4.363-4.81-2.909-8.588-6.989-11.336-12.242-2.746-5.253-4.121-11.233-4.121-17.94 0-6.788 1.375-12.749 4.121-17.88 2.748-5.131 6.526-9.111 11.336-11.939 4.806-2.829 10.159-4.243 16.059-4.243zm24.727 34.182c0-5.009-1.011-9.374-3.03-13.091-2.02-3.717-4.748-6.565-8.183-8.545-3.434-1.98-7.211-2.97-11.332-2.97s-7.881.97-11.273 2.909c-3.395 1.939-6.103 4.768-8.122 8.485-2.02 3.717-3.03 8.081-3.03 13.091 0 5.09 1.011 9.515 3.03 13.273 2.02 3.757 4.728 6.626 8.122 8.605 3.393 1.981 7.152 2.97 11.273 2.97s7.898-.988 11.332-2.97c3.435-1.979 6.163-4.849 8.183-8.605 2.02-3.757 3.03-8.142 3.03-13.152zm35.518-43.879c-2.102 0-3.88-.727-5.334-2.182-1.455-1.455-2.182-3.233-2.182-5.334 0-2.101.727-3.878 2.182-5.333 1.454-1.455 3.232-2.182 5.334-2.182 2.02 0 3.737.727 5.15 2.182 1.415 1.455 2.122 3.231 2.122 5.333 0 2.102-.707 3.88-2.122 5.334-1.413 1.455-3.131 2.182-5.15 2.182zm5.334 10.788v66.426h-11.032V32.13h11.032zm32.241 9.091v39.153c0 3.231.688 5.515 2.062 6.848 1.374 1.333 3.758 2 7.152 2h8.12v9.334h-9.938c-6.143 0-10.748-1.415-13.82-4.244-3.07-2.827-4.605-7.474-4.605-13.938V41.221h-8.605V32.13h8.605V15.402h11.03V32.13h17.334v9.091h-17.335zm26.546 23.88c0-6.788 1.375-12.749 4.123-17.88 2.746-5.131 6.524-9.111 11.334-11.939 4.807-2.828 10.16-4.243 16.06-4.243 5.819 0 10.869 1.253 15.151 3.758 4.284 2.505 7.476 5.657 9.576 9.455V32.13h11.152v66.426h-11.152V86.192c-2.181 3.878-5.433 7.091-9.757 9.637-4.323 2.545-9.354 3.817-15.092 3.817-5.899 0-11.232-1.454-16.001-4.363-4.768-2.909-8.525-6.989-11.271-12.242-2.748-5.253-4.123-11.234-4.123-17.94zm56.244.12c0-5.009-1.011-9.374-3.03-13.091-2.02-3.717-4.748-6.565-8.182-8.545-3.435-1.98-7.212-2.97-11.333-2.97s-7.879.97-11.273 2.909-6.102 4.768-8.122 8.485c-2.02 3.717-3.03 8.081-3.03 13.091 0 5.09 1.011 9.515 3.03 13.273 2.021 3.757 4.728 6.626 8.122 8.605 3.395 1.981 7.152 2.97 11.273 2.97s7.898-.988 11.333-2.97c3.434-1.979 6.162-4.849 8.182-8.605 2.019-3.757 3.03-8.142 3.03-13.152zm40.852-56.365v89.7h-11.032v-89.7h11.032z"/><linearGradient id="a" gradientUnits="userSpaceOnUse" x1="103.197" y1="137.596" x2="103.197" y2="0"><stop offset="0" style="stop-color:#025cf8"/><stop offset="1" style="stop-color:#00dcfe"/></linearGradient><path fill-rule="evenodd" clip-rule="evenodd" fill="url(#a)" d="M21.827 27.52H52.33L69.015 0h16.091L64.694 33.667l56.871 81.22 67.466-81.119-14.296-20.008h-29.013l12.513 20.64-37.138 52.847-8.458-12.079 29.062-41.501L129.63 13.76H94.855L103.197 0h78.618l24.579 34.4-85.716 103.196-67.686-96.317H23.609l70.351 84.587-8.244 11.73L0 34.4 24.578 0h16.911z"/></svg>