<svg width="104" height="104" viewBox="0 0 104 104" fill="none" xmlns="http://www.w3.org/2000/svg">
<g clip-path="url(#clip0_271_779)">
<path d="M52 104C50.3173 104 48.9531 102.636 48.9531 100.953C48.9531 99.2704 50.3173 97.9062 52 97.9062C77.3128 97.9062 97.9062 77.3128 97.9062 52C97.9062 26.6872 77.3128 6.09375 52 6.09375C26.6872 6.09375 6.09375 26.6872 6.09375 52C6.09375 64.262 10.8688 75.7902 19.5394 84.4606C20.7293 85.6505 18.9126 85.0874 17.7227 86.2773C16.5327 87.4672 15.2305 88.7697 15.2305 88.7697C5.40902 78.9482 0 65.8897 0 52C0 38.1103 5.40902 25.0518 15.2303 15.2303C25.0518 5.40902 38.1103 0 52 0C65.8897 0 78.9482 5.40902 88.7697 15.2303C98.591 25.0518 104 38.1103 104 52C104 65.8897 98.591 78.9482 88.7697 88.7697C78.9482 98.591 65.8897 104 52 104Z" fill="#162D7F"/>
<path d="M44.158 80.1493L23.8483 59.8397C23.0443 59.0357 21.8595 58.7465 20.7758 59.0889C19.6919 59.4316 18.8886 60.3491 18.6928 61.4689L14.3837 86.0901C14.2124 87.068 14.5285 88.068 15.2305 88.77C15.8068 89.3462 16.5839 89.6623 17.3847 89.6623C17.5593 89.6623 17.7352 89.6473 17.9103 89.6166L42.5289 85.3049C43.6487 85.1088 44.566 84.3057 44.9085 83.2216C45.2514 82.1375 44.9619 80.9531 44.158 80.1493Z" fill="#4CBFE2"/>
<path d="M44.1579 80.1495L34.0045 69.9961L15.2303 88.7701H15.2305C15.8068 89.3464 16.5839 89.6625 17.3847 89.6625C17.5593 89.6625 17.7352 89.6474 17.9103 89.6168L42.5289 85.305C43.6487 85.109 44.566 84.3058 44.9085 83.2218C45.2514 82.1377 44.9619 80.9533 44.1579 80.1495Z" fill="#1CABD6"/>
<path d="M73.5973 30.4032L63.441 20.2469C62.2513 19.057 60.322 19.057 59.1321 20.2469L19.5394 59.8398L34.0045 74.3048L73.5975 34.7119C74.1691 34.1405 74.49 33.3655 74.49 32.5575C74.4898 31.7495 74.1687 30.9746 73.5973 30.4032Z" fill="#B982FF"/>
<path d="M83.7507 40.5558L73.5975 30.4023L31.85 72.1496L44.158 84.4576L83.7507 44.8646C84.9406 43.6747 84.9406 41.7457 83.7507 40.5558Z" fill="#A864FF"/>
</g>
<defs>
<clipPath id="clip0_271_779">
<rect width="104" height="104" fill="white"/>
</clipPath>
</defs>
</svg>
