<svg width="104" height="104" viewBox="0 0 104 104" fill="none" xmlns="http://www.w3.org/2000/svg">
<g clip-path="url(#clip0_281_867)">
<path d="M52 104C50.3173 104 48.9531 102.636 48.9531 100.953C48.9531 99.2704 50.3173 97.9062 52 97.9062C77.3128 97.9062 97.9062 77.3128 97.9062 52C97.9062 26.6872 77.3128 6.09375 52 6.09375C26.6872 6.09375 6.09375 26.6872 6.09375 52C6.09375 64.262 10.8688 75.7902 19.5394 84.4606C20.7293 85.6505 18.9126 85.0874 17.7227 86.2773C16.5327 87.4672 15.2305 88.7697 15.2305 88.7697C5.40902 78.9482 0 65.8897 0 52C0 38.1103 5.40902 25.0518 15.2303 15.2303C25.0518 5.40902 38.1103 0 52 0C65.8897 0 78.9482 5.40902 88.7697 15.2303C98.591 25.0518 104 38.1103 104 52C104 65.8897 98.591 78.9482 88.7697 88.7697C78.9482 98.591 65.8897 104 52 104Z" fill="#4E6BA6"/>
<path d="M44.158 80.1488L23.8483 59.8392C23.0443 59.0352 21.8595 58.746 20.7758 59.0884C19.6919 59.4311 18.8886 60.3486 18.6928 61.4685L14.3837 86.0896C14.2124 87.0675 14.5285 88.0675 15.2305 88.7695C15.8068 89.3457 16.5839 89.6618 17.3847 89.6618C17.5593 89.6618 17.7352 89.6468 17.9103 89.6161L42.5289 85.3044C43.6487 85.1084 44.566 84.3052 44.9085 83.2211C45.2514 82.137 44.9619 80.9526 44.158 80.1488Z" fill="#FFE470"/>
<path d="M44.1579 80.149L34.0045 69.9956L15.2303 88.7696H15.2305C15.8068 89.3459 16.5839 89.662 17.3847 89.662C17.5593 89.662 17.7352 89.6469 17.9103 89.6163L42.5289 85.3045C43.6487 85.1085 44.566 84.3054 44.9085 83.2213C45.2514 82.1372 44.9619 80.9528 44.1579 80.149Z" fill="#FABE2C"/>
<path d="M73.5973 30.4027L63.441 20.2464C62.2513 19.0565 60.322 19.0565 59.1321 20.2464L19.5394 59.8394L34.0045 74.3043L73.5975 34.7114C74.1691 34.14 74.49 33.3651 74.49 32.557C74.4898 31.749 74.1687 30.9741 73.5973 30.4027Z" fill="#00DD80"/>
<path d="M83.7507 40.5562L73.5975 30.4028L31.85 72.1501L44.158 84.4581L83.7507 44.8651C84.9406 43.6752 84.9406 41.7461 83.7507 40.5562Z" fill="#00AA95"/>
</g>
<defs>
<clipPath id="clip0_281_867">
<rect width="104" height="104" fill="white"/>
</clipPath>
</defs>
</svg>
