<svg width="104" height="104" viewBox="0 0 104 104" fill="none" xmlns="http://www.w3.org/2000/svg">
<path d="M79.2188 12.1875H8.125C6.44231 12.1875 5.07812 13.5517 5.07812 15.2344V79.625C5.07812 81.3077 6.44231 82.6719 8.125 82.6719H79.2188C80.9014 82.6719 82.2656 81.3077 82.2656 79.625V15.2344C82.2656 13.5517 80.9014 12.1875 79.2188 12.1875Z" fill="#ECF9FD"/>
<path d="M79.2188 12.1875H43.9766V82.6719H79.2188C80.9014 82.6719 82.2656 81.3077 82.2656 79.625V15.2344C82.2656 13.5517 80.9014 12.1875 79.2188 12.1875Z" fill="#D9F3FC"/>
<path d="M53.8281 67.4375H23.3594C21.6767 67.4375 20.3125 66.0733 20.3125 64.3906C20.3125 62.7079 21.6767 61.3438 23.3594 61.3438H53.8281C55.5108 61.3438 56.875 62.7079 56.875 64.3906C56.875 66.0733 55.5108 67.4375 53.8281 67.4375Z" fill="#4E6BA6"/>
<path d="M53.8281 61.3438H43.9766V67.4375H53.8281C55.5108 67.4375 56.875 66.0733 56.875 64.3906C56.875 62.7079 55.5108 61.3438 53.8281 61.3438Z" fill="#28487A"/>
<path d="M63.9844 55.25H23.3594C21.6767 55.25 20.3125 53.8858 20.3125 52.2031C20.3125 50.5204 21.6767 49.1562 23.3594 49.1562H63.9844C65.6671 49.1562 67.0312 50.5204 67.0312 52.2031C67.0312 53.8858 65.6671 55.25 63.9844 55.25Z" fill="#4E6BA6"/>
<path d="M63.9844 49.1562H43.9766V55.25H63.9844C65.6671 55.25 67.0312 53.8858 67.0312 52.2031C67.0312 50.5204 65.6671 49.1562 63.9844 49.1562Z" fill="#28487A"/>
<path d="M63.9844 24.375H23.3594C21.6767 24.375 20.3125 25.7392 20.3125 27.4219V39.8125C20.3125 41.4952 21.6767 42.8594 23.3594 42.8594H63.9844C65.6671 42.8594 67.0312 41.4952 67.0312 39.8125V27.4219C67.0312 25.7392 65.6671 24.375 63.9844 24.375Z" fill="#00DD80"/>
<path d="M63.9844 24.375H43.9766V42.8594H63.9844C65.6671 42.8594 67.0312 41.4952 67.0312 39.8125V27.4219C67.0312 25.7392 65.6671 24.375 63.9844 24.375Z" fill="#00AA95"/>
<path d="M67.0312 0H8.125C6.44231 0 5.07812 1.36419 5.07812 3.04688V15.2344H70.0781V3.04688C70.0781 1.36419 68.7139 0 67.0312 0Z" fill="#8DC2EB"/>
<path d="M67.0312 0H43.9766V15.2344H70.0781V3.04688C70.0781 1.36419 68.7139 0 67.0312 0Z" fill="#5E9FF6"/>
<path d="M79.2188 0H67.0312V15.2344H82.2656V3.04688C82.2656 1.36419 80.9014 0 79.2188 0Z" fill="#3D6DEF"/>
<path d="M96.2447 55.8531C94.5183 54.1263 92.2228 53.1753 89.7813 53.1753C87.3395 53.1753 85.0442 54.1263 83.318 55.8529L61.1772 77.9935C57.6138 81.5573 57.6138 87.3563 61.1772 90.92C62.9036 92.6465 65.1989 93.5976 67.6406 93.5976C70.0822 93.5976 72.3777 92.6465 74.1039 90.9202L96.2445 68.7798C97.9711 67.0532 98.9221 64.7577 98.9221 62.3163C98.9221 59.875 97.9711 57.5792 96.2447 55.8531Z" fill="#FFE470"/>
<path d="M61.1774 90.9201C62.9037 92.6463 65.1988 93.5973 67.6404 93.5973C70.082 93.5973 72.3775 92.6463 74.1036 90.9199L96.2443 68.7795C97.9708 67.0529 98.9219 64.7574 98.9219 62.3161C98.9219 59.8747 97.9708 57.5792 96.2445 55.853L61.1774 90.9201Z" fill="#FABE2C"/>
<path d="M63.3317 73.5312C59.3294 73.5312 55.5929 75.1418 52.8109 78.0662C50.271 80.7359 48.605 84.4053 48.1195 88.3978C47.4669 93.7659 44.3851 99.4275 44.3556 99.4813C43.8348 100.425 43.8517 101.574 44.3997 102.502C44.9477 103.43 45.9455 104 47.0234 104H63.3317C71.732 104 78.5661 97.1657 78.5661 88.7654C78.5661 80.3652 71.732 73.5312 63.3317 73.5312Z" fill="#00DD80"/>
<path d="M48.0978 104H63.3317C71.732 104 78.5661 97.166 78.5661 88.7658C78.5661 84.5656 76.8578 80.7572 74.0994 77.9985L48.0978 104Z" fill="#00AA95"/>
</svg>
