<svg width="59" height="24" viewBox="0 0 59 24" fill="none" xmlns="http://www.w3.org/2000/svg">
<path fill-rule="evenodd" clip-rule="evenodd" d="M58.3384 12.4005C58.3384 8.29906 56.3518 5.06274 52.5547 5.06274C48.7416 5.06274 46.4346 8.29906 46.4346 12.3685C46.4346 17.1909 49.1582 19.6262 53.0674 19.6262C54.974 19.6262 56.4159 19.1936 57.5053 18.5848V15.3805C56.4159 15.9252 55.1662 16.2617 53.5801 16.2617C52.026 16.2617 50.6482 15.7169 50.4719 13.8264H58.3064C58.3064 13.6181 58.3384 12.785 58.3384 12.4005ZM50.4239 10.8785C50.4239 9.06808 51.5294 8.31508 52.5387 8.31508C53.516 8.31508 54.5574 9.06808 54.5574 10.8785H50.4239Z" fill="#32325D"/>
<path fill-rule="evenodd" clip-rule="evenodd" d="M40.2504 5.06274C38.6803 5.06274 37.6709 5.79973 37.1102 6.31241L36.9019 5.31909H33.3772V24L37.3825 23.1509L37.3986 18.6168C37.9753 19.0334 38.8245 19.6262 40.2343 19.6262C43.1022 19.6262 45.7136 17.3191 45.7136 12.2403C45.6976 7.59412 43.0541 5.06274 40.2504 5.06274ZM39.2891 16.1015C38.3438 16.1015 37.7831 15.765 37.3986 15.3485L37.3825 9.40453C37.7991 8.93991 38.3759 8.61948 39.2891 8.61948C40.747 8.61948 41.7564 10.2537 41.7564 12.3525C41.7564 14.4993 40.763 16.1015 39.2891 16.1015Z" fill="#32325D"/>
<path fill-rule="evenodd" clip-rule="evenodd" d="M31.8872 0L27.8658 0.849132V4.11749L31.8872 3.25233V0Z" fill="#32325D"/>
<path fill-rule="evenodd" clip-rule="evenodd" d="M27.8658 5.33508H31.8872V19.3538H27.8658V5.33508Z" fill="#32325D"/>
<path fill-rule="evenodd" clip-rule="evenodd" d="M23.5561 6.52068L23.2997 5.3351H19.8391V19.3538H23.8444V9.85312C24.7897 8.61948 26.3918 8.84378 26.8885 9.02001V5.3351C26.3758 5.14284 24.5013 4.79037 23.5561 6.52068Z" fill="#32325D"/>
<path fill-rule="evenodd" clip-rule="evenodd" d="M15.5455 1.85852L11.6363 2.69163L11.6202 15.5247C11.6202 17.8959 13.3986 19.6422 15.7698 19.6422C17.0835 19.6422 18.0448 19.4019 18.5735 19.1135V15.8612C18.0608 16.0695 15.5294 16.8064 15.5294 14.4353V8.7477H18.5735V5.33515H15.5294L15.5455 1.85852Z" fill="#32325D"/>
<path fill-rule="evenodd" clip-rule="evenodd" d="M4.71502 9.40453C4.71502 8.7797 5.22771 8.53938 6.07684 8.53938C7.29446 8.53938 8.83251 8.90787 10.0501 9.56474V5.79973C8.72036 5.27102 7.40661 5.06274 6.07684 5.06274C2.8245 5.06274 0.661621 6.76101 0.661621 9.59679C0.661621 14.0187 6.74974 13.3137 6.74974 15.2203C6.74974 15.9573 6.10888 16.1976 5.21169 16.1976C3.88191 16.1976 2.18365 15.6529 0.837856 14.9159V18.729C2.32784 19.3698 3.83385 19.6422 5.21169 19.6422C8.54413 19.6422 10.8352 17.992 10.8352 15.1242C10.8192 10.3498 4.71502 11.1989 4.71502 9.40453Z" fill="#32325D"/>
</svg>
